<svg version="1.2" xmlns="http://www.w3.org/2000/svg" xmlns:xlink="http://www.w3.org/1999/xlink" overflow="visible" preserveAspectRatio="none" viewBox="0 0 16.800000190734863 21.399999618530273" xml:space="preserve" y="0px" x="0px" id="Layer_1_1559814108001" width="11.000000000000002" height="15"><g transform="translate(1, 1)"><style type="text/css">
	.st0_1559814108001{fill:#070707;}
</style><path d="M3.7,0.5c-0.1,0-0.2,0-0.2,0.1L1.8,2.2C1.7,2.2,1.7,2.3,1.7,2.4c0,0.1,0,0.2,0.1,0.2L9,9.7l-7.2,7.1  c-0.1,0.1-0.1,0.2-0.1,0.2c0,0.1,0,0.2,0.1,0.2l1.6,1.6c0.1,0.1,0.4,0.1,0.5,0L13,10c0.1-0.1,0.1-0.2,0.1-0.2c0-0.1-0.1-0.2-0.1-0.2  L3.9,0.6C3.9,0.5,3.7,0.5,3.7,0.5z" class="st0_1559814108001" vector-effect="non-scaling-stroke" style="fill: #098900;"/></g></svg>