<svg version="1.2" xmlns="http://www.w3.org/2000/svg" xmlns:xlink="http://www.w3.org/1999/xlink" overflow="visible" preserveAspectRatio="none" viewBox="0 0 129.0999984741211 225.60000610351562" xml:space="preserve" y="0px" x="0px" width="253" height="444.24409448818903"><g transform="translate(1, 1)"><style type="text/css">
	.st0_1558712120588{display:none;}
	.st1_1558712120588{fill:#FFFFFF;stroke:#DADADA;stroke-width:3;stroke-miterlimit:10;}
	.st2_1558712120588{fill:#E5EDF0;}
	.st3_1558712120588{fill:#CEE7C0;}
	.st4_1558712120588{fill:#0D9DD6;}
	.st5_1558712120588{fill:#EAEAEA;}
	.st6_1558712120588{fill:none;stroke:#0D9DD6;stroke-miterlimit:10;}
	.st7_1558712120588{fill:#777777;}
	.st8_1558712120588{font-family:'HelveticaNeue-Medium';}
	.st9_1558712120588{font-size:9.0164px;}
</style><g id="Layer_5_1558712120588">
</g><g class="st0_1558712120588" id="Layer_1_1558712120588">
	
		<image transform="matrix(1 0 0 1 -244.8675 -283.2982)" xmlns:xlink="http://www.w3.org/1999/xlink" xlink:href="../../electricity-bill-explained-account-number-mprn (1).jpg" height="865" width="617" style="display:inline;overflow:visible;" vector-effect="non-scaling-stroke">
	</image>
</g><g id="Layer_3_1558712120588">
</g><g id="Layer_2_1558712120588">
</g><g id="Layer_4_1558712120588">
	<g>
		<path d="M113.8,158.6H13.3c-2.8,0-5-2.3-5-5V15c0-2.8,2.3-5,5-5h100.4c2.8,0,5,2.3,5,5v138.6    C118.8,156.4,116.6,158.6,113.8,158.6z" class="st1_1558712120588" vector-effect="non-scaling-stroke"/>
		<rect height="50.5" width="41.5" class="st2_1558712120588" y="63.5" x="21.8" vector-effect="non-scaling-stroke"/>
		<rect height="10.3" width="18.8" class="st2_1558712120588" y="48.4" x="21.8" vector-effect="non-scaling-stroke"/>
		<rect height="16" width="22.2" class="st2_1558712120588" y="136" x="66.1" vector-effect="non-scaling-stroke"/>
		<rect height="8" width="23.5" class="st2_1558712120588" y="136" x="39.8" vector-effect="non-scaling-stroke"/>
		<rect height="8" width="29.2" class="st2_1558712120588" y="127" x="34.1" vector-effect="non-scaling-stroke"/>
		<rect height="25.4" width="22.2" class="st2_1558712120588" y="28.7" x="84.1" vector-effect="non-scaling-stroke"/>
		<rect height="9.4" width="22.2" class="st3_1558712120588" y="19" x="84.1" vector-effect="non-scaling-stroke"/>
		<g>
			<path d="M39.8,31.6c0.2-0.2,0.3-0.4,0.3-0.7l-0.7-0.1c-0.1,0.4-0.4,0.7-0.9,0.7c-0.6,0-1-0.4-1-1.1     c0-0.6,0.3-1.1,1-1.1c0.5,0,0.7,0.2,0.9,0.6l0.7-0.1c-0.2-0.7-0.7-1.2-1.6-1.2c-1.1,0-1.7,0.7-1.7,1.7c0,0.8,0.4,1.4,1.1,1.6     c-2.2,0.4-4.3,0.5-5.9,0.5c-1.4,0-3.3-0.1-5.2-0.4c0.7,0,1.1-0.3,1.4-0.9l-0.7-0.1c-0.2,0.2-0.4,0.4-0.8,0.4     c-0.5,0-0.9-0.3-0.9-0.8h2.5c0-0.2,0.1-2-1.6-2c-1,0-1.7,0.7-1.7,1.7c0,0.7,0.4,1.3,1,1.6c-0.4-0.1-0.8-0.1-1.2-0.2v-4h-0.7v3.8     c-0.1,0-0.2,0-0.3-0.1v0.2c0,0,3.5,1.3,8.3,1.3c4.8,0,8.3-1.3,8.3-1.3v-0.2C40.2,31.5,40,31.6,39.8,31.6 M26.7,29.4     c0.5,0,0.8,0.3,0.9,0.7h-1.8C25.9,29.6,26.2,29.4,26.7,29.4 M22,28.7c-1,0-1.7,0.7-1.7,1.7c0,1,0.7,1.7,1.7,1.7     c0.7,0,1.3-0.3,1.5-0.9l-0.7-0.1c-0.2,0.2-0.4,0.4-0.8,0.4c-0.5,0-0.9-0.3-0.9-0.8h2.5C23.7,30.5,23.8,28.7,22,28.7 M21.1,30     c0.1-0.4,0.4-0.7,0.9-0.7c0.5,0,0.8,0.3,0.9,0.7H21.1z M28.5,30.4c0-1,0.7-1.7,1.7-1.7c0.9,0,1.4,0.4,1.6,1.2L31.1,30     c-0.1-0.4-0.4-0.6-0.9-0.6c-0.6,0-1,0.4-1,1.1c0,0.6,0.3,1.1,1,1.1c0.5,0,0.8-0.3,0.9-0.7l0.7,0.1c-0.2,0.7-0.7,1.2-1.6,1.2     C29.2,32.1,28.5,31.4,28.5,30.4 M32.2,29.4h-0.4v-0.6h0.4v-0.9h0.8v0.9h0.7v0.6h-0.7v1.7c0,0.3,0.2,0.3,0.3,0.3     c0.2,0,0.4,0,0.4,0v0.6c0,0-0.3,0-0.5,0c-0.4,0-0.6-0.1-0.8-0.3c-0.1-0.1-0.2-0.3-0.2-0.6V29.4z M34.6,32h-0.7v-3.3h0.8l0,0.4     c0.4-0.4,1-0.4,1-0.4v0.7c-0.6,0-1,0.2-1,0.8V32z M36.6,28.5h-0.8v-0.8h0.8V28.5z M36.6,32h-0.8v-3.3h0.8V32z" class="st4_1558712120588" vector-effect="non-scaling-stroke"/>
			<path d="M23.9,32v4.7h0.7v-4.5C24.4,32.2,24.1,32.1,23.9,32" class="st4_1558712120588" vector-effect="non-scaling-stroke"/>
			<path d="M40.3,32v4.7h-0.7l0-0.2c-0.3,0.2-0.6,0.3-0.9,0.3c-0.4,0-0.8-0.1-1.1-0.4c-0.3-0.3-0.4-0.7-0.4-1.1     c0-0.5,0.1-0.9,0.4-1.2c0.3-0.3,0.7-0.5,1.1-0.5c0.3,0,0.6,0.1,0.9,0.3l0-1.6C39.9,32.2,40.2,32.1,40.3,32 M39.7,35.2     c0-0.3-0.1-0.5-0.3-0.7c-0.2-0.2-0.4-0.3-0.6-0.3c-0.5,0-0.9,0.4-0.9,1c0,0.6,0.3,1,0.9,1c0.3,0,0.5-0.1,0.6-0.3     C39.6,35.7,39.7,35.5,39.7,35.2" class="st4_1558712120588" vector-effect="non-scaling-stroke"/>
			<path d="M26.5,33.6c0,0-0.5,0-0.8,0.4v-0.3H25v3.1h0.7v-1.6c0-0.6,0.4-0.7,0.8-0.8V33.6z" class="st4_1558712120588" vector-effect="non-scaling-stroke"/>
			<path d="M28.1,33.6c-1,0-1.6,0.6-1.6,1.6c0,0.9,0.6,1.6,1.6,1.6c0.7,0,1.2-0.3,1.4-0.8l-0.7-0.1     c-0.1,0.2-0.4,0.3-0.7,0.3c-0.5,0-0.8-0.3-0.9-0.7h2.4C29.6,35.2,29.7,33.6,28.1,33.6 M27.2,34.8c0.1-0.4,0.4-0.7,0.9-0.7     c0.4,0,0.7,0.2,0.8,0.7L27.2,34.8z" class="st4_1558712120588" vector-effect="non-scaling-stroke"/>
			<path d="M29.8,36.7h0.7v-3.6c-0.2,0-0.5,0-0.7,0V36.7z" class="st4_1558712120588" vector-effect="non-scaling-stroke"/>
			<path d="M33.1,33.6v0.2c-0.3-0.2-0.6-0.3-0.9-0.3c-0.4,0-0.8,0.2-1.1,0.5c-0.3,0.3-0.4,0.7-0.4,1.2     c0,0.5,0.1,0.9,0.4,1.1c0.3,0.3,0.7,0.4,1.1,0.4c0.3,0,0.6-0.1,0.9-0.3v0.3h0.7v-3.1H33.1z M32.9,35.9c-0.2,0.2-0.4,0.3-0.6,0.3     c-0.5,0-0.9-0.4-0.9-1c0-0.6,0.3-1,0.9-1c0.3,0,0.5,0.1,0.6,0.3c0.2,0.2,0.3,0.4,0.3,0.7C33.2,35.4,33.1,35.7,32.9,35.9" class="st4_1558712120588" vector-effect="non-scaling-stroke"/>
			<path d="M36.7,33.9c0.3,0.3,0.3,0.6,0.3,0.9v1.9h-0.7v-1.8c0-0.4-0.2-0.7-0.6-0.7c-0.2,0-0.4,0.1-0.6,0.2     c-0.2,0.1-0.3,0.3-0.3,0.5v1.8h-0.7v-3.1h0.7v0.2c0.3-0.2,0.6-0.3,0.9-0.3C36.2,33.6,36.5,33.7,36.7,33.9" class="st4_1558712120588" vector-effect="non-scaling-stroke"/>
		</g>
		<g>
			<path d="M106.9,130.8c0.1-0.1,0.2-0.3,0.2-0.5l-0.5-0.1c-0.1,0.3-0.3,0.5-0.6,0.5c-0.5,0-0.7-0.3-0.7-0.8     c0-0.5,0.3-0.8,0.7-0.8c0.3,0,0.6,0.2,0.6,0.5l0.5-0.1c-0.1-0.5-0.5-0.9-1.2-0.9c-0.8,0-1.3,0.5-1.3,1.3c0,0.6,0.3,1,0.8,1.2     c-1.7,0.3-3.2,0.4-4.4,0.4c-1,0-2.5-0.1-3.9-0.3c0.5,0,0.8-0.2,1-0.6l-0.5-0.1c-0.1,0.2-0.3,0.3-0.6,0.3c-0.4,0-0.7-0.2-0.7-0.6     h1.9c0-0.2,0.1-1.5-1.2-1.5c-0.8,0-1.3,0.5-1.3,1.3c0,0.5,0.3,1,0.7,1.2c-0.3-0.1-0.6-0.1-0.9-0.2v-3h-0.5v2.9     c-0.1,0-0.1,0-0.2-0.1v0.1c0,0,2.6,1,6.2,1c3.6,0,6.2-1,6.2-1v-0.1C107.2,130.8,107,130.8,106.9,130.8 M97.1,129.2     c0.3,0,0.6,0.2,0.6,0.5h-1.3C96.6,129.3,96.8,129.2,97.1,129.2 M93.7,128.7c-0.8,0-1.3,0.5-1.3,1.3c0,0.7,0.5,1.3,1.3,1.3     c0.5,0,0.9-0.2,1.1-0.6l-0.5-0.1c-0.1,0.2-0.3,0.3-0.6,0.3c-0.4,0-0.7-0.2-0.7-0.6h1.9C94.9,130,95,128.7,93.7,128.7 M93,129.7     c0.1-0.3,0.3-0.5,0.7-0.5c0.3,0,0.6,0.2,0.6,0.5H93z M98.5,129.9c0-0.7,0.5-1.3,1.3-1.3c0.6,0,1,0.3,1.2,0.9l-0.5,0.1     c-0.1-0.3-0.3-0.5-0.6-0.5c-0.5,0-0.7,0.3-0.7,0.8c0,0.5,0.3,0.8,0.7,0.8c0.3,0,0.6-0.2,0.6-0.5l0.5,0.1     c-0.1,0.6-0.5,0.9-1.2,0.9C99,131.2,98.5,130.7,98.5,129.9 M101.2,129.2H101v-0.5h0.3v-0.7h0.6v0.7h0.5v0.5h-0.5v1.3     c0,0.2,0.1,0.2,0.2,0.2c0.1,0,0.3,0,0.3,0v0.5c0,0-0.2,0-0.4,0c-0.3,0-0.5-0.1-0.6-0.2c-0.1-0.1-0.1-0.2-0.1-0.4V129.2z      M103.1,131.1h-0.6v-2.4h0.6l0,0.3c0.3-0.3,0.7-0.3,0.7-0.3v0.5c-0.4,0-0.7,0.1-0.7,0.6V131.1z M104.5,128.5h-0.6v-0.6h0.6V128.5     z M104.5,131.1h-0.6v-2.4h0.6V131.1z" class="st4_1558712120588" vector-effect="non-scaling-stroke"/>
			<path d="M95.1,131.1v3.5h0.5v-3.3C95.4,131.2,95.3,131.2,95.1,131.1" class="st4_1558712120588" vector-effect="non-scaling-stroke"/>
			<path d="M107.3,131.1v3.5h-0.5l0-0.2c-0.2,0.2-0.4,0.2-0.7,0.2c-0.3,0-0.6-0.1-0.8-0.3c-0.2-0.2-0.3-0.5-0.3-0.8     c0-0.3,0.1-0.7,0.3-0.9c0.2-0.2,0.5-0.3,0.8-0.3c0.2,0,0.5,0.1,0.7,0.2l0-1.2C107,131.2,107.2,131.2,107.3,131.1 M106.8,133.5     c0-0.2-0.1-0.4-0.2-0.5c-0.1-0.1-0.3-0.2-0.5-0.2c-0.4,0-0.6,0.3-0.6,0.7c0,0.4,0.2,0.7,0.6,0.7c0.2,0,0.3-0.1,0.5-0.2     C106.8,133.9,106.8,133.7,106.8,133.5" class="st4_1558712120588" vector-effect="non-scaling-stroke"/>
			<path d="M97,132.3c0,0-0.3,0-0.6,0.3v-0.2h-0.5v2.3h0.5v-1.2c0-0.4,0.3-0.5,0.6-0.6V132.3z" class="st4_1558712120588" vector-effect="non-scaling-stroke"/>
			<path d="M98.2,132.3c-0.7,0-1.2,0.5-1.2,1.2c0,0.7,0.4,1.2,1.2,1.2c0.5,0,0.9-0.2,1-0.6l-0.5-0.1     c-0.1,0.2-0.3,0.3-0.5,0.3c-0.4,0-0.6-0.2-0.6-0.6h1.8C99.3,133.5,99.4,132.3,98.2,132.3 M97.5,133.2c0.1-0.3,0.3-0.5,0.6-0.5     c0.3,0,0.5,0.2,0.6,0.5L97.5,133.2z" class="st4_1558712120588" vector-effect="non-scaling-stroke"/>
			<path d="M99.5,134.6h0.5V132c-0.2,0-0.3,0-0.5,0V134.6z" class="st4_1558712120588" vector-effect="non-scaling-stroke"/>
			<path d="M102,132.3v0.2c-0.2-0.2-0.4-0.2-0.7-0.2c-0.3,0-0.6,0.1-0.8,0.3c-0.2,0.2-0.3,0.5-0.3,0.9     c0,0.3,0.1,0.6,0.3,0.8c0.2,0.2,0.5,0.3,0.8,0.3c0.2,0,0.5-0.1,0.7-0.2v0.2h0.5v-2.3H102z M101.8,134c-0.1,0.1-0.3,0.2-0.5,0.2     c-0.4,0-0.6-0.3-0.6-0.7c0-0.4,0.2-0.7,0.6-0.7c0.2,0,0.3,0.1,0.5,0.2c0.1,0.1,0.2,0.3,0.2,0.5C102,133.7,101.9,133.9,101.8,134" class="st4_1558712120588" vector-effect="non-scaling-stroke"/>
			<path d="M104.6,132.5c0.2,0.2,0.2,0.4,0.2,0.7v1.4h-0.5v-1.4c0-0.3-0.1-0.5-0.4-0.5c-0.1,0-0.3,0.1-0.4,0.2     c-0.1,0.1-0.2,0.2-0.2,0.4v1.3h-0.5v-2.3h0.5v0.2c0.2-0.2,0.4-0.2,0.7-0.2C104.2,132.3,104.5,132.4,104.6,132.5" class="st4_1558712120588" vector-effect="non-scaling-stroke"/>
		</g>
		<rect height="1.6" width="95.6" class="st5_1558712120588" y="120.2" x="16.7" vector-effect="non-scaling-stroke"/>
		<path d="M105.2,31.6h-20c-2.3,0-4.1-1.9-4.1-4.1v-7.3c0-2.3,1.9-4.1,4.1-4.1h20c2.3,0,4.1,1.9,4.1,4.1v7.3    C109.3,29.8,107.5,31.6,105.2,31.6z" class="st6_1558712120588" vector-effect="non-scaling-stroke"/>
		<line y2="168.4" x2="90.6" y1="31.6" x1="90.6" class="st6_1558712120588" vector-effect="non-scaling-stroke"/>
	</g>
	<g>
		<rect height="8.6" width="64.5" class="st2_1558712120588" y="205" x="31.3" vector-effect="non-scaling-stroke"/>
		<rect height="27.3" width="64.5" class="st3_1558712120588" y="176.8" x="31.3" vector-effect="non-scaling-stroke"/>
		<path d="M100.5,213.6H26.6c-2.3,0-4.1-1.9-4.1-4.1v-36.9c0-2.3,1.9-4.1,4.1-4.1h73.9c2.3,0,4.1,1.9,4.1,4.1v36.9    C104.7,211.7,102.8,213.6,100.5,213.6z" class="st6_1558712120588" vector-effect="non-scaling-stroke"/>
		<text class="st7_1558712120588 st8_1558712120588 st9_1558712120588" transform="matrix(1 0 0 1 40.7559 194.3777)" vector-effect="non-scaling-stroke">912345678</text>
	</g>
</g></g></svg>