<svg id="Layer_1" data-name="Layer 1" xmlns="http://www.w3.org/2000/svg" viewBox="0 0 37.94 37.94"><title>Boards</title><path d="M19,2A17,17,0,1,1,2,19,17,17,0,0,1,19,2m0-2a19,19,0,1,0,19,19A19,19,0,0,0,19,0Z" fill="#009fda" /><path d="M26.15,9H11.79A2.75,2.75,0,0,0,9,11.79V26.15a2.76,2.76,0,0,0,2.75,2.76H26.15a2.77,2.77,0,0,0,2.76-2.76V11.79A2.76,2.76,0,0,0,26.15,9ZM15.61,20.84c-1.37,0-2.49-2-2.49-4.49s1.12-4.49,2.49-4.49,2.5,2,2.5,4.49S17,20.84,15.61,20.84Zm7.17-1.61c-1.14,0-2.05-1.65-2.05-3.68s.91-3.69,2.05-3.69,2,1.65,2,3.69S23.91,19.23,22.78,19.23Z" fill="#009fda" /></svg>