<?xml version="1.0" encoding="UTF-8" standalone="no"?>
<!-- Created with Inkscape (http://www.inkscape.org/) -->

<svg
   xmlns:dc="http://purl.org/dc/elements/1.1/"
   xmlns:cc="http://creativecommons.org/ns#"
   xmlns:rdf="http://www.w3.org/1999/02/22-rdf-syntax-ns#"
   xmlns:svg="http://www.w3.org/2000/svg"
   xmlns="http://www.w3.org/2000/svg"
   xmlns:sodipodi="http://sodipodi.sourceforge.net/DTD/sodipodi-0.dtd"
   xmlns:inkscape="http://www.inkscape.org/namespaces/inkscape"
   width="35"
   height="35"
   viewBox="0 0 35 35.000001"
   id="svg4141"
   version="1.1"
   inkscape:version="0.91 r13725"
   sodipodi:docname="circle-green.svg">
  <defs
     id="defs4143" />
  <sodipodi:namedview
     id="base"
     pagecolor="#ffffff"
     bordercolor="#666666"
     borderopacity="1.0"
     inkscape:pageopacity="0.0"
     inkscape:pageshadow="2"
     inkscape:zoom="15.839192"
     inkscape:cx="29.215091"
     inkscape:cy="16.149248"
     inkscape:document-units="px"
     inkscape:current-layer="layer1"
     showgrid="false"
     units="px"
     inkscape:window-width="1920"
     inkscape:window-height="1017"
     inkscape:window-x="-8"
     inkscape:window-y="-8"
     inkscape:window-maximized="1" />
  <metadata
     id="metadata4146">
    <rdf:RDF>
      <cc:Work
         rdf:about="">
        <dc:format>image/svg+xml</dc:format>
        <dc:type
           rdf:resource="http://purl.org/dc/dcmitype/StillImage" />
        <dc:title></dc:title>
      </cc:Work>
    </rdf:RDF>
  </metadata>
  <g
     inkscape:label="Calque 1"
     inkscape:groupmode="layer"
     id="layer1"
     transform="translate(0,-1017.3622)">
    <circle
       style="fill:#098900;fill-opacity:1;stroke:none;stroke-opacity:0.67889913"
       id="path4689"
       cx="17.5"
       cy="1034.8622"
       r="17.5" />
    <g
       transform="matrix(0.65476191,0,0,0.70093459,12.654762,1028.0719)"
       id="g3">
      <style
         type="text/css"
         id="style5">
	.st0_1559814108001{fill:#070707;}
</style>
      <path
         inkscape:connector-curvature="0"
         d="m 3.7,0.5 c -0.1,0 -0.2,0 -0.2,0.1 L 1.8,2.2 c -0.1,0 -0.1,0.1 -0.1,0.2 0,0.1 0,0.2 0.1,0.2 L 9,9.7 1.8,16.8 C 1.7,16.9 1.7,17 1.7,17 c 0,0.1 0,0.2 0.1,0.2 l 1.6,1.6 c 0.1,0.1 0.4,0.1 0.5,0 L 13,10 C 13.1,9.9 13.1,9.8 13.1,9.8 13.1,9.7 13,9.6 13,9.6 L 3.9,0.6 C 3.9,0.5 3.7,0.5 3.7,0.5 Z"
         class="st0_1559814108001"
         vector-effect="non-scaling-stroke"
         style="fill:#ffffff"
         id="path7" />
    </g>
  </g>
</svg>
