<?xml version="1.0" encoding="utf-8"?>
<!-- Generator: Adobe Illustrator 16.2.1, SVG Export Plug-In . SVG Version: 6.00 Build 0)  -->
<!DOCTYPE svg PUBLIC "-//W3C//DTD SVG 1.1//EN" "http://www.w3.org/Graphics/SVG/1.1/DTD/svg11.dtd">
<svg version="1.1" id="Layer_1" xmlns="http://www.w3.org/2000/svg" xmlns:xlink="http://www.w3.org/1999/xlink" x="0px" y="0px"
	 width="150px" height="70px" viewBox="65 25 150 70" enable-background="new 65 25 150 70" xml:space="preserve">
<g>
	<g>
		<path fill="#19398A" d="M169.459,37.158c-0.791,0.138-1.58,0.297-2.369,0.48c-21.381,4.974-42.084,26.061-42.084,26.061
			c14.424-12.604,28.525-20.445,40.051-23.297c0.679-0.167,1.346-0.312,2.002-0.444c3.944-0.797,7.55-0.972,10.725-0.525
			c0.074-0.962,0.114-1.88,0.121-2.748C175.121,36.479,172.292,36.664,169.459,37.158z"/>
		<path fill="#19398A" d="M182.013,37.285c-0.13-0.029-0.262-0.053-0.392-0.08c0.057,0.981,0.081,2.048,0.067,3.189
			c11.556,4.525,4.425,23.304,4.425,23.304C188.097,61.075,195.372,40.308,182.013,37.285z"/>
	</g>
	<g>
		<path fill="#56A0D3" d="M150.367,63.672c0,0,8.543-13.837,16.691-23.714c-0.657,0.132-1.324,0.276-2.003,0.443
			C161.278,45.694,156.464,53.25,150.367,63.672z"/>
		<path fill="#56A0D3" d="M181.62,37.206c-0.238-4.04-1.062-6.623-2.343-6.927c-0.066-0.016-0.133-0.026-0.201-0.037l-0.264-0.022
			l-3.08-0.301c0.002,0.001,0.005-0.086,0.007-0.085c-0.123-0.011-0.255-0.083-0.393-0.083h-0.079v0.178
			c-1.604,0.196-4.202,2.442-8.217,7.71c0.789-0.183,1.599-0.342,2.389-0.48c2.488-2.78,4.863-4.951,6.835-6.08
			c0.209-0.119,0.421-0.267,0.619-0.267h0.001c0.718,1.062,1.031,3.262,1.01,5.926c-0.007,0.867-0.047,1.758-0.121,2.722
			c-0.662,8.443-3.886,19.967-8.159,24.271c4.015-0.224,6.446,1.341,7.691,2.127c2.965-9.458,4.298-18.744,4.373-25.459
			C181.702,39.258,181.678,38.187,181.62,37.206z"/>
	</g>
	<path fill="#231F20" d="M106.634,52.812v31.257c0,1.762,0.236,2.915,0.708,3.458c0.474,0.544,1.466,0.812,2.977,0.812h0.274v1.295
		H98.716v-1.295h0.383c1.477,0,2.441-0.27,2.895-0.812c0.455-0.543,0.681-1.694,0.681-3.458V62.075c0-2.012-0.139-3.292-0.412-3.836
		c-0.276-0.547-1.048-1.091-2.316-1.636l-1.206-0.504v-0.337L106.634,52.812z"/>
	<path fill="#231F20" d="M126.468,85.487c-1.245,1.587-2.562,2.779-3.954,3.572c-1.391,0.794-2.864,1.19-4.419,1.19
		c-1.554,0-2.847-0.521-3.879-1.559c-1.031-1.04-1.547-2.349-1.547-3.925c0-1.744,0.819-3.228,2.455-4.446
		c1.636-1.223,4.337-2.363,8.105-3.422l2.9-0.84v-3.29c0-1.441-0.085-2.445-0.253-3.01c-0.167-0.565-0.532-1.045-1.093-1.438
		c-0.856-0.627-1.906-0.943-3.153-0.943c-1.292,0-2.257,0.273-2.903,0.817c-0.645,0.543-0.967,1.364-0.967,2.467v1.044l-4.581,1.462
		v-0.631c0-1.685,0.98-3.286,2.942-4.802c1.932-1.474,4.339-2.211,7.217-2.211c2.383,0,4.105,0.483,5.165,1.45
		c1.058,0.979,1.587,2.558,1.587,4.743v9.948c0,2.537,0.226,4.224,0.676,5.066c0.45,0.842,1.343,1.263,2.68,1.263
		c0.423,0,0.887-0.032,1.395-0.101v1.234c-1.381,0.749-2.757,1.122-4.123,1.122c-1.183,0-2.13-0.396-2.841-1.19
		C127.161,88.267,126.694,87.074,126.468,85.487z M126.129,77.466l-1.203,0.376c-3.265,1.02-5.409,1.936-6.429,2.75
		c-1.02,0.815-1.529,1.99-1.529,3.521c0,1.005,0.347,1.876,1.044,2.614c0.698,0.737,1.516,1.105,2.46,1.105
		c1.575,0,3.032-0.731,4.37-2.2c0.858-0.965,1.288-2.294,1.288-3.992L126.129,77.466L126.129,77.466z"/>
	<path fill="#231F20" d="M145.464,90.25l-9.001-18.614c-0.902-1.778-1.587-2.924-2.051-3.434c-0.466-0.513-1.05-0.769-1.755-0.769
		h-0.318v-1.293h9.778v1.293h-0.38c-1.376,0-2.064,0.344-2.064,1.028c0,0.464,0.385,1.506,1.155,3.131l6.364,13.293l5.573-13.271
		c0.606-1.399,0.911-2.358,0.911-2.877c0-0.869-0.76-1.304-2.275-1.304h-0.357v-1.293h7.88v1.293h-0.318
		c-0.662,0-1.245,0.295-1.746,0.883s-1.103,1.687-1.81,3.3l-8.172,18.634H145.464L145.464,90.25z"/>
	<path fill="#231F20" d="M169.677,90.25c-3.477,0-6.338-1.161-8.583-3.482s-3.368-5.284-3.368-8.893
		c0-3.593,1.123-6.548,3.368-8.869c2.245-2.323,5.106-3.482,8.583-3.482c3.489,0,6.357,1.159,8.604,3.482
		c2.244,2.321,3.367,5.276,3.367,8.869c0,3.608-1.124,6.571-3.367,8.893C176.034,89.091,173.166,90.25,169.677,90.25z
		 M169.677,88.788c2.167,0,3.912-0.997,5.235-2.998s1.983-4.637,1.983-7.915c0-3.259-0.66-5.889-1.983-7.888
		c-1.323-2.001-3.068-3-5.235-3c-2.155,0-3.894,1.001-5.217,3s-1.983,4.631-1.983,7.888c0,3.278,0.66,5.916,1.983,7.915
		C165.783,87.791,167.521,88.788,169.677,88.788z"/>
	<path fill="#231F20" d="M190.321,71.648v12.42c0,1.762,0.234,2.915,0.708,3.458c0.472,0.544,1.462,0.813,2.975,0.813h0.276v1.293
		h-11.879V88.34h0.385c1.461,0,2.422-0.271,2.883-0.813c0.462-0.543,0.691-1.694,0.691-3.458v-9.452
		c0-1.933-0.142-3.173-0.423-3.719c-0.283-0.547-1.05-1.085-2.306-1.618l-1.206-0.524v-0.338l7.896-2.894v4.833
		c1.687-1.629,3.286-2.852,4.798-3.666c1.51-0.813,2.928-1.223,4.253-1.223c1.915,0,3.495,0.653,4.75,1.958
		c1.279,1.333,1.919,3.759,1.919,7.28v9.364c0,1.762,0.234,2.913,0.702,3.458c0.468,0.542,1.454,0.812,2.958,0.812H210v1.293
		h-11.875V88.34h0.338c1.491,0,2.466-0.271,2.928-0.823c0.459-0.549,0.69-1.699,0.69-3.446v-9.45c0-2.074-0.34-3.577-1.02-4.505
		c-0.681-0.924-1.792-1.388-3.335-1.388c-1.123,0-2.3,0.245-3.537,0.727C192.957,69.936,191.667,70.667,190.321,71.648z"/>
	<path fill="#231F20" d="M79.337,58.715v12.941h7.003c1.87,0,3.12-0.275,3.749-0.824c0.839-0.723,1.307-1.995,1.405-3.816h0.875
		v11.211h-0.875c-0.227-1.578-0.452-2.591-0.679-3.038c-0.29-0.559-0.767-0.995-1.427-1.315c-0.662-0.318-1.678-0.478-3.048-0.478
		h-7.003v10.816c0,1.453,0.064,2.335,0.191,2.649c0.126,0.316,0.353,0.566,0.673,0.751c0.321,0.187,0.929,0.277,1.829,0.277h5.532
		c1.843,0,3.184-0.132,4.016-0.396c0.832-0.263,1.635-0.782,2.404-1.557c0.995-1.021,2.013-2.561,3.055-4.617h1.071l-2.831,8.309H70
		v-1.293h1.155c0.769,0,1.5-0.188,2.191-0.561c0.514-0.261,0.861-0.652,1.047-1.171c0.184-0.52,0.275-1.585,0.275-3.198V63.163
		c0-2.125-0.21-3.436-0.625-3.933c-0.578-0.661-1.542-0.991-2.888-0.991H70v-1.269h25.288l0.291,7.144h-1.072
		c-0.332-1.726-0.703-2.911-1.11-3.558c-0.407-0.646-1.007-1.14-1.803-1.483c-0.639-0.241-1.761-0.363-3.37-0.363h-8.887V58.715z"/>
</g>
</svg>
