<svg version="1.2" xmlns="http://www.w3.org/2000/svg" xmlns:xlink="http://www.w3.org/1999/xlink" overflow="visible" preserveAspectRatio="none" viewBox="0 0 72.9000015258789 72.9000015258789" xml:space="preserve" y="0px" x="0px" id="Layer_1_1562157899864" width="55" height="55"><g transform="translate(1, 1)"><g>
	<path d="M57.8,33c-0.7,0-1.4-0.4-1.7-1C52,25,44.1,20.6,35.4,20.6c-8.6,0-16.5,4.4-20.7,11.5c-0.6,1-1.8,1.3-2.7,0.7   c-1-0.6-1.3-1.8-0.7-2.7c4.8-8.3,14.1-13.5,24.1-13.5c10,0,19.3,5.2,24.1,13.5c0.6,1,0.2,2.2-0.7,2.7C58.5,32.9,58.2,33,57.8,33z" vector-effect="non-scaling-stroke" style="fill: rgb(255, 255, 255);"/>
</g><g>
	<path d="M51.2,38.8c-0.7,0-1.4-0.4-1.7-1c-2.8-4.9-8.2-8-14-8c-5.8,0-11.2,3.1-14,8c-0.5,1-1.8,1.3-2.7,0.8c-1-0.5-1.3-1.8-0.8-2.7   c3.5-6.2,10.2-10,17.5-10c7.3,0,14,3.8,17.5,10c0.5,1,0.2,2.2-0.8,2.7C51.8,38.8,51.5,38.8,51.2,38.8z" vector-effect="non-scaling-stroke" style="fill: rgb(255, 255, 255);"/>
</g><g>
	<path d="M26.3,44.6c-0.4,0-0.7-0.1-1.1-0.3c-0.9-0.6-1.2-1.8-0.6-2.8c2.3-3.7,6.4-6,10.8-6c4.4,0,8.5,2.2,10.8,5.9   c0.6,0.9,0.3,2.2-0.6,2.8c-0.9,0.6-2.2,0.3-2.8-0.6c-1.6-2.5-4.3-4-7.4-4c-3.1,0-5.8,1.5-7.4,4.1C27.6,44.3,27,44.6,26.3,44.6z" vector-effect="non-scaling-stroke" style="fill: rgb(255, 255, 255);"/>
</g><g>
	<circle r="3.4" cy="48.9" cx="35.4" vector-effect="non-scaling-stroke" style="fill: rgb(255, 255, 255);"/>
</g></g></svg>