<svg version="1.2" xmlns="http://www.w3.org/2000/svg" xmlns:xlink="http://www.w3.org/1999/xlink" overflow="visible" preserveAspectRatio="none" viewBox="0 0 26 26" xml:space="preserve" y="0px" x="0px" id="Layer_1_1573128259344" width="12" height="12"><g transform="translate(1, 1)"><g id="New_icons_1__1573128259344">
</g><path d="M13.4,12l9.9-9.9c0.4-0.4,0.4-1,0-1.4s-1-0.4-1.4,0L12,10.6L2.1,0.7c-0.4-0.4-1-0.4-1.4,0s-0.4,1,0,1.4l9.9,9.9l-9.9,9.9  c-0.4,0.4-0.4,1,0,1.4c0.2,0.2,0.5,0.3,0.7,0.3s0.5-0.1,0.7-0.3l9.9-9.9l9.9,9.9c0.2,0.2,0.5,0.3,0.7,0.3s0.5-0.1,0.7-0.3  c0.4-0.4,0.4-1,0-1.4L13.4,12z" vector-effect="non-scaling-stroke" style="fill: rgb(66, 66, 66);"/></g></svg>