<?xml version="1.0" encoding="utf-8"?>
<!-- Generator: Adobe Illustrator 23.0.4, SVG Export Plug-In . SVG Version: 6.00 Build 0)  -->
<svg version="1.1" id="Layer_1" xmlns="http://www.w3.org/2000/svg" xmlns:xlink="http://www.w3.org/1999/xlink" x="0px" y="0px"
	 viewBox="0 0 24 24" style="enable-background:new 0 0 24 24;" xml:space="preserve">
<g>
	<path d="M12,0C5.4,0,0,5.4,0,12c0,6.6,5.4,12,12,12s12-5.4,12-12C24,5.4,18.6,0,12,0z M13.2,17.8h-2.3v-2.3h2.3V17.8z M15.5,11.2
		c-0.2,0.3-0.6,0.6-1.1,1.1l-0.6,0.4c-0.3,0.2-0.5,0.5-0.6,0.8c-0.1,0.2-0.1,0.5-0.1,0.9h-2.1c0-0.9,0.1-1.5,0.2-1.8
		c0.1-0.3,0.5-0.7,1-1.2l0.6-0.4c0.2-0.1,0.3-0.3,0.5-0.5c0.2-0.3,0.3-0.6,0.3-0.9c0-0.4-0.1-0.8-0.3-1.1C13,8.2,12.6,8.1,12,8.1
		c-0.6,0-1,0.2-1.3,0.6c-0.3,0.4-0.4,0.8-0.4,1.2H8c0.1-1.5,0.6-2.5,1.6-3.2c0.6-0.4,1.4-0.6,2.3-0.6C13,6.2,14,6.5,14.8,7
		C15.6,7.6,16,8.4,16,9.5C16,10.2,15.8,10.8,15.5,11.2z" fill="#00aeff" />
</g>
</svg>
