<?xml version="1.0" encoding="utf-8"?>
<!-- Generator: Adobe Illustrator 23.0.4, SVG Export Plug-In . SVG Version: 6.00 Build 0)  -->
<svg version="1.1" id="Layer_1" xmlns="http://www.w3.org/2000/svg" xmlns:xlink="http://www.w3.org/1999/xlink" x="0px" y="0px"
	 viewBox="0 0 30 30" style="enable-background:new 0 0 30 30;" xml:space="preserve">
<g>
	<path d="M15,0C6.7,0,0,6.7,0,15c0,8.3,6.7,15,15,15s15-6.7,15-15C30,6.7,23.3,0,15,0z M16.9,24.1h-3.7v-3.5h3.7V24.1z M20.4,13.8
		c-0.3,0.4-0.9,1-1.8,1.7l-0.9,0.7c-0.5,0.4-0.8,0.8-0.9,1.3c-0.1,0.3-0.2,0.8-0.2,1.4h-3.3c0-1.4,0.2-2.3,0.4-2.9
		c0.2-0.5,0.8-1.1,1.6-1.8l0.9-0.7c0.3-0.2,0.5-0.5,0.7-0.7c0.3-0.4,0.5-0.9,0.5-1.5c0-0.6-0.2-1.2-0.5-1.7c-0.4-0.5-1-0.8-2-0.8
		c-0.9,0-1.6,0.3-2,0.9c-0.4,0.6-0.6,1.3-0.6,2H8.8c0.1-2.3,0.9-4,2.4-4.9c1-0.6,2.1-0.9,3.5-0.9c1.8,0,3.4,0.4,4.6,1.3
		c1.2,0.9,1.8,2.2,1.8,3.9C21.2,12.2,20.9,13.1,20.4,13.8z" fill="#c84f00" />
</g>
</svg>
