<svg version="1.2" xmlns="http://www.w3.org/2000/svg" xmlns:xlink="http://www.w3.org/1999/xlink" overflow="visible" preserveAspectRatio="none" viewBox="0 0 531.1999999999998 142.99146205357238" width="531.1999999999998" height="142.99146205357238"><g transform="translate(1, 1)"><defs><path id="path-156042857443123" d="M-939.0223993863094 2149.9558035714367 C-939.0223993863094 2149.9558035714367 -938.8223993863094 2289.4628906250086 -938.8223993863094 2289.4628906250086 C-938.8223993863094 2289.4628906250086 -806.371198792496 2292.8027343750095 -695.2047989589622 2289.4628906250086 C-584.038399125429 2286.1230468750086 -511.0335992347505 2281.1132812500095 -472.8719992918957 2277.7734375000086 C-434.71039934904104 2274.4335937500086 -409.8223993863096 2271.093750000009 -409.8223993863096 2271.093750000009 C-409.8223993863096 2271.093750000009 -410.0223993863096 2150.0472656250076 -410.0223993863096 2150.0472656250076 C-410.0223993863096 2150.0472656250076 -939.0223993863094 2149.9558035714367 -939.0223993863094 2149.9558035714367 Z" vector-effect="non-scaling-stroke"/></defs><g transform="translate(939.0223993863094, -2149.9558035714367)"><path d="M-939.0223993863094 2149.9558035714367 C-939.0223993863094 2149.9558035714367 -938.8223993863094 2289.4628906250086 -938.8223993863094 2289.4628906250086 C-938.8223993863094 2289.4628906250086 -806.371198792496 2292.8027343750095 -695.2047989589622 2289.4628906250086 C-584.038399125429 2286.1230468750086 -511.0335992347505 2281.1132812500095 -472.8719992918957 2277.7734375000086 C-434.71039934904104 2274.4335937500086 -409.8223993863096 2271.093750000009 -409.8223993863096 2271.093750000009 C-409.8223993863096 2271.093750000009 -410.0223993863096 2150.0472656250076 -410.0223993863096 2150.0472656250076 C-410.0223993863096 2150.0472656250076 -939.0223993863094 2149.9558035714367 -939.0223993863094 2149.9558035714367 Z" style="stroke: rgb(194, 194, 194); stroke-width: 1; stroke-linecap: butt; stroke-linejoin: miter; fill: rgb(255, 255, 255);" vector-effect="non-scaling-stroke"/><path d="M-939.0223993863094 2149.9558035714367 C-939.0223993863094 2149.9558035714367 -938.8223993863094 2289.4628906250086 -938.8223993863094 2289.4628906250086 C-938.8223993863094 2289.4628906250086 -806.371198792496 2292.8027343750095 -695.2047989589622 2289.4628906250086 C-584.038399125429 2286.1230468750086 -511.0335992347505 2281.1132812500095 -472.8719992918957 2277.7734375000086 C-434.71039934904104 2274.4335937500086 -409.8223993863096 2271.093750000009 -409.8223993863096 2271.093750000009 C-409.8223993863096 2271.093750000009 -410.0223993863096 2150.0472656250076 -410.0223993863096 2150.0472656250076 C-410.0223993863096 2150.0472656250076 -939.0223993863094 2149.9558035714367 -939.0223993863094 2149.9558035714367 Z" fill="none" stroke="transparent" stroke-width="8" vector-effect="non-scaling-stroke"/></g></g></svg>