<svg version="1.2" xmlns="http://www.w3.org/2000/svg" xmlns:xlink="http://www.w3.org/1999/xlink" overflow="visible" preserveAspectRatio="none" viewBox="0 0 40.900001525878906 45.400001525878906" xml:space="preserve" y="0px" x="0px" id="Layer_1_1559833352148" width="20" height="23"><g transform="translate(1, 1)"><path d="M19.5,40.9c-3.1,0-5.8-0.1-8.2-0.2c-0.8-0.1-1.3-0.7-1.3-1.5c0.1-0.8,0.7-1.4,1.5-1.3c2.4,0.2,5.1,0.2,8.1,0.2  c4.7,0,8.8-0.2,12-0.6c1.8-0.2,2.8-0.5,3.3-0.6c-0.7-3.1-2.3-4.6-4.7-6.2c-0.6-0.4-1.4-0.7-2.3-1.1h-0.2c-2-0.8-4.4-1.8-5.1-3.9  c-0.4-1.4,0-3,1.3-5c2.8-4.6,3.4-8.6,1.6-11.7c-1.3-2.4-3.5-3.7-6-3.7c-2.4,0-4.7,1.4-6,3.7c-1.8,3.1-1.2,7,1.7,11.7  c1.2,2,1.7,3.6,1.2,5c-0.6,2-3.1,3.1-5.1,3.9l-0.2,0.1c-0.9,0.4-1.8,0.7-2.3,1.1c-2.4,1.6-4,3.2-4.7,6.4c-0.2,0.8-0.9,1.3-1.6,1.1  c-0.8-0.2-1.2-0.9-1.1-1.7c0.9-4.3,3.4-6.5,6-8.2c0.8-0.5,1.8-0.9,2.7-1.3l0.2-0.1c1.2-0.5,3.2-1.3,3.5-2.1c0.1-0.2,0.2-0.9-0.9-2.6  c-3.5-5.7-4.1-10.5-1.8-14.6c1.8-3.2,5-5.1,8.3-5.1c3.4,0,6.5,1.9,8.3,5.1c2.3,4.1,1.8,9-1.7,14.6c-1.1,1.7-1,2.4-1,2.7  c0.2,0.8,2.4,1.6,3.5,2l0.2,0.1c0.9,0.4,1.8,0.8,2.7,1.3c2.6,1.7,5,3.9,6,8.2c0.3,1.3-0.5,2.7-1.8,3.1c-0.1,0-0.2,0-0.2,0.1h-0.1  c-0.5,0.1-1.5,0.4-3.7,0.6C28.4,40.7,24.3,40.9,19.5,40.9z M34.8,37.1L34.8,37.1L34.8,37.1z" vector-effect="non-scaling-stroke" style="fill:#fff;"/></g></svg>