<svg version="1.2" xmlns="http://www.w3.org/2000/svg" xmlns:xlink="http://www.w3.org/1999/xlink" overflow="visible" preserveAspectRatio="none" viewBox="0 0 276 137.3000030517578" xml:space="preserve" y="0px" x="0px" id="Capa_1_1558523212663" width="130" height="64"><g transform="translate(1, 1)"><style type="text/css">
	.st0_1558523212663{fill:#010001;}
</style><g>
	<path d="M257.9,59.6c2-2.3,3.4-5.2,4.2-8.7l-9.2-1.7c-1.5,5-5.2,8.3-11.2,8.3c-7.9,0-12.2-5.2-12.2-13.4   c0-8.3,4.4-13.4,12.2-13.4c5.9,0,9.6,2.9,11.1,7.8l9.2-1.3c-2.2-9.2-9.2-14.8-20.2-14.8c-13.5,0-22,8.8-22,21.7   c0,9.9,5.1,17.5,13.6,20.4c-28.6,4.8-55.2,6.2-74.9,6.2c-17.6,0.2-42.8-1.5-66.8-5c8.4-0.4,14.5-4.2,17.4-11l-9.4-1.9   c-1.9,3-5.2,4.7-9.7,4.7c-6.8,0-11.3-3.8-11.8-10.2h32.5c0.3-2.7,1.1-25-20.7-25c-13,0-22,9-22,21.7c0,9.4,4.6,16.7,12.3,19.9   C74.9,63,69.7,62,64.7,61V9.7h-9.4v49c-1.1-0.3-2.3-0.6-3.4-0.9v2.4c0,0,45.2,16.4,106.5,16.4c61.4,0,106.5-16.4,106.5-16.4v-2.4   C262.6,58.5,260.3,59,257.9,59.6 M90,30.7c5.9,0,10.5,3.5,11.1,8.7H78.5C79.8,34,83.7,30.7,90,30.7 M31,22.3c-13,0-22,9-22,21.7   c0,12.9,8.5,21.7,22,21.7c9.3,0,16-3.8,19.1-11.1l-9.5-1.9c-1.9,3-5.2,4.7-9.6,4.7c-6.8,0-11.3-3.8-11.8-10.2h32.5   C52,44.6,52.8,22.3,31,22.3 M19.5,39.4c1.4-5.4,5.2-8.7,11.5-8.7c5.9,0,10.5,3.5,11.1,8.7H19.5z M113.5,44.1   c0-12.9,8.5-21.7,22-21.7c11,0,18,5.6,20.2,14.8l-9.2,1.3c-1.5-4.9-5.2-7.8-11.1-7.8c-7.9,0-12.2,5.2-12.2,13.4   c0,8.3,4.4,13.4,12.2,13.4c6,0,9.7-3.3,11.2-8.3l9.2,1.7c-2,9.5-9.1,14.9-20.4,14.9C122,65.8,113.5,56.9,113.5,44.1 M160.3,31.1   h-4.9v-8h4.9V11.7h9.6V23h8.9v8h-8.9v22.1c0,3.4,2,4.1,4.3,4.1c2.3,0,4.6-0.2,4.6-0.2v8.1c0,0-3.9,0.3-6.2,0.3   c-4.6,0-7.9-1.2-9.9-3.6c-1.5-1.8-2.4-4.2-2.4-7.2V31.1z M191.7,64.8h-9.6V23h9.6l0,4.8c5.7-5.6,12.4-4.8,12.4-4.8v8.9   c-7.7,0.1-12.4,2.3-12.4,10.3V64.8z M216.5,19.3h-9.6V9.7h9.6V19.3z M216.5,64.8h-9.6V23h9.6V64.8z" class="st0_1558523212663" vector-effect="non-scaling-stroke" style="fill: rgb(0, 159, 218);"/>
	<path d="M55.3,64.9v59.7h9.4V67.6C60.5,66.5,57.4,65.6,55.3,64.9" class="st0_1558523212663" vector-effect="non-scaling-stroke" style="fill: rgb(0, 159, 218);"/>
	<path d="M265,64.9v59.7h-9.1l0-3.2c-3.8,2.8-7.7,4.1-11.5,4.1c-5.7,0-10.6-1.9-14-5.5c-3.4-3.6-5.3-8.6-5.3-14.6   c0-5.9,1.9-11.2,5.4-15c3.5-3.8,8.4-5.9,13.9-5.9c4,0,7.8,1.3,11.5,4l0-21C259.7,66.4,262.8,65.6,265,64.9 M256.7,104.9   c0-3.6-1.1-6.7-3.2-8.9c-2.1-2.2-4.6-3.4-8.1-3.4c-6.8,0-11.1,4.7-11.1,12.4c0,7.6,4.2,12.4,11.1,12.4c3.5,0,5.9-1.2,8.1-3.4   C255.5,111.7,256.7,108.6,256.7,104.9" class="st0_1558523212663" vector-effect="non-scaling-stroke" style="fill: rgb(0, 159, 218);"/>
	<path d="M88,84.8c0,0-5.8-0.5-10.4,4.8v-4.2h-9v39.2h9v-21.1c0-7.1,5.4-9.3,10.4-9.7V84.8z" class="st0_1558523212663" vector-effect="non-scaling-stroke" style="fill: rgb(0, 159, 218);"/>
	<path d="M107.8,84.6c-12.2,0-20.4,8.2-20.4,20.4c0,12.1,7.7,20.4,20.4,20.4c8.8,0,14.8-3.6,17.8-10.5l-8.7-1.7   c-1.8,2.8-4.8,4.4-9.1,4.4c-6.4,0-10.4-3.6-11-9.6H127C127.3,105.6,128.3,84.6,107.8,84.6 M96.8,100.8c1.3-5.3,5.1-8.4,11-8.4   c5.5,0,9.4,3.1,10.3,8.4L96.8,100.8z" class="st0_1558523212663" vector-effect="non-scaling-stroke" style="fill: rgb(0, 159, 218);"/>
	<path d="M130,124.6h9V79.1c-3-0.2-6-0.4-9-0.6V124.6z" class="st0_1558523212663" vector-effect="non-scaling-stroke" style="fill: rgb(0, 159, 218);"/>
	<path d="M172.8,85.4v3.1c-3.7-2.7-7.5-4.1-11.5-4.1c-5.5,0-10.5,2.1-14,5.9c-3.5,3.8-5.3,9.1-5.3,15   c0,5.9,1.8,11,5.3,14.6c3.5,3.6,8.3,5.5,14,5.5c3.9,0,7.8-1.3,11.5-4.1v3.2h9V85.4H172.8z M170.2,113.8c-2.1,2.2-4.6,3.4-8.1,3.4   c-6.8,0-11.1-4.7-11.1-12.4c0-7.6,4.2-12.4,11-12.4c3.5,0,5.9,1.2,8.1,3.4c2.1,2.2,3.3,5.3,3.3,8.9   C173.4,108.5,172.3,111.6,170.2,113.8" class="st0_1558523212663" vector-effect="non-scaling-stroke" style="fill: rgb(0, 159, 218);"/>
	<path d="M218.5,88.5c3.3,3.2,3.6,7.6,3.6,11.4v24.7h-9.1v-23.2c0-5.5-2.2-8.7-7.7-8.7c-2.6,0-5.2,0.9-7.3,2.6   c-2.2,1.8-3.4,4.2-3.4,6.8v22.6h-9V85.4h9v3.2c3.4-2.9,7.4-4.1,11.9-4.1C211.8,84.5,215.8,85.8,218.5,88.5" class="st0_1558523212663" vector-effect="non-scaling-stroke" style="fill: rgb(0, 159, 218);"/>
</g></g></svg>