<svg version="1.2" xmlns="http://www.w3.org/2000/svg" xmlns:xlink="http://www.w3.org/1999/xlink" overflow="visible" preserveAspectRatio="none" viewBox="0 0 652 407.63226318359375" id="svg895_1572608171256" width="34" height="22"><g transform="translate(1, 1)"><defs><style type="text/css">.a{opacity:0;}.b{fill:#fff;}.c_1572608171256{fill:#ff5f00;}.d_1572608171256{fill:#eb001b;}.e_1572608171256{fill:#f79e1b;}</style></defs><rect id="rect887_1572608171256" height="311.0047" width="190.41551" y="47.297737" x="229.83263" class="c_1572608171256" style="display:inline;fill:#ff5f00;stroke-width:5.49381161" vector-effect="non-scaling-stroke"/><path id="path889_1572608171256" d="m 249.44554,202.82756 a 197.44759,197.44759 0 0 1 75.53991,-155.474867 197.77722,197.77722 0 1 0 0,311.004677 197.44759,197.44759 0 0 1 -75.53991,-155.52981 z" class="d_1572608171256" style="fill:#eb001b;stroke-width:5.49381161" vector-effect="non-scaling-stroke"/><path id="path891_1572608171256" d="m 626.1013,325.3945 v -6.37282 h 2.7469 v -1.31852 h -6.53764 v 1.31852 h 2.5821 v 6.37282 z m 12.6907,0 v -7.69134 h -1.97778 l -2.3074,5.49381 -2.3074,-5.49381 h -1.97777 v 7.69134 h 1.42839 v -5.82344 l 2.14259,4.99937 h 1.48333 l 2.14258,-4.99937 v 5.82344 z" class="e_1572608171256" style="fill:#f79e1b;stroke-width:5.49381161" vector-effect="non-scaling-stroke"/><path id="path893_1572608171256" d="m 645,202.82756 a 197.77722,197.77722 0 0 1 -320.01455,155.47487 197.77722,197.77722 0 0 0 0,-311.004675 A 197.77722,197.77722 0 0 1 645,202.77262 Z" class="e_1572608171256" style="fill:#f79e1b;stroke-width:5.49381161" vector-effect="non-scaling-stroke"/></g></svg>