<svg version="1.2" xmlns="http://www.w3.org/2000/svg" xmlns:xlink="http://www.w3.org/1999/xlink" overflow="visible" preserveAspectRatio="none" viewBox="0 0 72.9000015258789 72.9000015258789" xml:space="preserve" y="0px" x="0px" id="Layer_1_1562158014413" width="55" height="55"><g transform="translate(1, 1)"><g>
	<g>
		<path d="M20,39.4c-0.5,0-1-0.2-1.4-0.6l-5.7-5.7c-0.6-0.6-0.8-1.6-0.3-2.4c4.6-8.4,13.4-13.6,22.9-13.6c1.3,0,2.5,0.1,3.8,0.3    c1.1,0.2,1.9,1.2,1.7,2.3c-0.2,1.1-1.2,1.8-2.3,1.7c-1.1-0.2-2.1-0.2-3.2-0.2c-7.6,0-14.6,3.9-18.6,10.2l4.6,4.6    c0.8,0.8,0.8,2,0,2.8C21,39.2,20.5,39.4,20,39.4z" vector-effect="non-scaling-stroke" style="fill: rgb(255, 255, 255);"/>
	</g>
	<g>
		<path d="M35.4,54.9c-0.5,0-1-0.2-1.4-0.6l-3.9-3.9c-0.8-0.8-0.8-2,0-2.8c0.8-0.8,2-0.8,2.8,0l2.5,2.5l18.6-18.6    c-0.7-1-1.4-2-2.2-2.9c-0.7-0.8-0.7-2.1,0.2-2.8s2.1-0.7,2.8,0.1c1.3,1.5,2.5,3.2,3.5,4.9c0.4,0.8,0.3,1.7-0.3,2.4L36.8,54.3    C36.5,54.7,35.9,54.9,35.4,54.9z" vector-effect="non-scaling-stroke" style="fill: rgb(255, 255, 255);"/>
	</g>
	<g>
		<path d="M20.8,50.8c-0.5,0-1-0.2-1.4-0.6c-0.8-0.8-0.8-2,0-2.8l30.9-30.9c0.8-0.8,2-0.8,2.8,0c0.8,0.8,0.8,2,0,2.8L22.2,50.3    C21.8,50.6,21.3,50.8,20.8,50.8z" vector-effect="non-scaling-stroke" style="fill: rgb(255, 255, 255);"/>
	</g>
</g></g></svg>