<?xml version="1.0" encoding="UTF-8" standalone="no"?>
<svg
   xmlns:dc="http://purl.org/dc/elements/1.1/"
   xmlns:cc="http://creativecommons.org/ns#"
   xmlns:rdf="http://www.w3.org/1999/02/22-rdf-syntax-ns#"
   xmlns:svg="http://www.w3.org/2000/svg"
   xmlns="http://www.w3.org/2000/svg"
   xmlns:sodipodi="http://sodipodi.sourceforge.net/DTD/sodipodi-0.dtd"
   xmlns:inkscape="http://www.inkscape.org/namespaces/inkscape"
   version="1.2"
   overflow="visible"
   preserveAspectRatio="none"
   viewBox="0 0 370 66.000008"
   width="370"
   height="66.000008"
   id="svg2"
   inkscape:version="0.91 r13725"
   sodipodi:docname="Path (1).svg"
   style="overflow:visible">
  <metadata
     id="metadata19">
    <rdf:RDF>
      <cc:Work
         rdf:about="">
        <dc:format>image/svg+xml</dc:format>
        <dc:type
           rdf:resource="http://purl.org/dc/dcmitype/StillImage" />
        <dc:title></dc:title>
      </cc:Work>
    </rdf:RDF>
  </metadata>
  <defs
     id="defs17" />
  <sodipodi:namedview
     pagecolor="#ffffff"
     bordercolor="#666666"
     borderopacity="1"
     objecttolerance="10"
     gridtolerance="10"
     guidetolerance="10"
     inkscape:pageopacity="0"
     inkscape:pageshadow="2"
     inkscape:window-width="756"
     inkscape:window-height="480"
     id="namedview15"
     showgrid="false"
     fit-margin-top="0"
     fit-margin-left="0"
     fit-margin-right="0"
     fit-margin-bottom="0"
     inkscape:zoom="0.96216216"
     inkscape:cx="185"
     inkscape:cy="33.000004"
     inkscape:window-x="0"
     inkscape:window-y="0"
     inkscape:window-maximized="0"
     inkscape:current-layer="svg2" />
  <g
     id="g4"
     transform="translate(4.9999999e-6,5.0387209e-6)">
    <defs
       id="defs6">
      <path
         id="path-156043849658728"
         d="m -656.10243,1528.4598 c 0,0 0,62.1144 0,62.1144 0,0 93.16405,2.3203 170.77078,0 77.60673,-2.3203 128.57234,-5.8008 155.21346,-8.1211 26.64112,-2.3203 44.01576,-4.6406 44.01576,-4.6406 0,0 0,-52.207 0,-52.207 0,0 -370,2.8543 -370,2.8543 z"
         vector-effect="non-scaling-stroke"
         inkscape:connector-curvature="0" />
    </defs>
    <g
       transform="translate(656.10243,-1525.6055)"
       id="g9">
      <path
         d="m -656.10243,1528.4598 c 0,0 0,62.1144 0,62.1144 0,0 93.16405,2.3203 170.77078,0 77.60673,-2.3203 128.57234,-5.8008 155.21346,-8.1211 26.64112,-2.3203 44.01576,-4.6406 44.01576,-4.6406 0,0 0,-52.207 0,-52.207 0,0 -370,2.8543 -370,2.8543 z"
         style="fill:#ffffff;stroke:#666666;stroke-width:0;stroke-linecap:butt;stroke-linejoin:miter"
         vector-effect="non-scaling-stroke"
         id="path11"
         inkscape:connector-curvature="0" />
      <path
         d="m -656.10243,1528.4598 c 0,0 0,62.1144 0,62.1144 0,0 93.16405,2.3203 170.77078,0 77.60673,-2.3203 128.57234,-5.8008 155.21346,-8.1211 26.64112,-2.3203 44.01576,-4.6406 44.01576,-4.6406 0,0 0,-52.207 0,-52.207 0,0 -370,2.8543 -370,2.8543 z"
         stroke="transparent"
         vector-effect="non-scaling-stroke"
         id="path13"
         inkscape:connector-curvature="0"
         style="fill:none;stroke-width:8" />
    </g>
  </g>
</svg>
