<?xml version="1.0" encoding="utf-8"?>
<!-- Generator: Adobe Illustrator 20.0.0, SVG Export Plug-In . SVG Version: 6.00 Build 0)  -->
<svg version="1.1" id="side_arcs" xmlns="http://www.w3.org/2000/svg" xmlns:xlink="http://www.w3.org/1999/xlink" x="0px" y="0px"
	 viewBox="0 0 1000 900" style="enable-background:new 0 0 1000 900;" xml:space="preserve">
<style type="text/css">
	.st0{fill:url(#SVGID_1_);}
	.st1{fill:url(#SVGID_2_);}
	.st2{fill:url(#SVGID_3_);}
	.st3{fill:url(#SVGID_4_);}
	.st4{fill:url(#SVGID_5_);}
	.st5{fill:url(#SVGID_6_);}
	.st6{fill:url(#SVGID_7_);}
	.st7{fill:url(#SVGID_8_);}
	.st8{fill:none;}
</style>
<g id="side_arcs_1_">
	<g>
		<g id="arches_2_">
			
				<linearGradient id="SVGID_1_" gradientUnits="userSpaceOnUse" x1="101.1" y1="304.2" x2="898.9" y2="304.2" gradientTransform="matrix(1 0 0 1 0 108)">
				<stop  offset="0" style="stop-color:#FFFFFF;stop-opacity:0"/>
				<stop  offset="0.5" style="stop-color:#FFFFFF;stop-opacity:0.1"/>
				<stop  offset="1" style="stop-color:#FFFFFF;stop-opacity:0"/>
			</linearGradient>
			<path class="st0" d="M500,455.2c138.1,0,271.8-16.5,398.9-86c-127,51.5-260.8,79-398.9,79s-271.8-27.5-398.9-79
				C228.2,438.7,361.9,455.2,500,455.2z"/>
			
				<linearGradient id="SVGID_2_" gradientUnits="userSpaceOnUse" x1="218.4" y1="331.1" x2="781.6" y2="331.1" gradientTransform="matrix(1 0 0 1 0 108)">
				<stop  offset="0" style="stop-color:#FFFFFF;stop-opacity:0"/>
				<stop  offset="0.5" style="stop-color:#FFFFFF;stop-opacity:0.1"/>
				<stop  offset="1" style="stop-color:#FFFFFF;stop-opacity:0"/>
			</linearGradient>
			<path class="st1" d="M500,457.5c97.4,0,191.9-12.8,281.6-36.8C691.9,438.5,597.5,448,500,448s-191.9-9.5-281.6-27.3
				C308.1,444.7,402.6,457.5,500,457.5z"/>
			
				<linearGradient id="SVGID_3_" gradientUnits="userSpaceOnUse" x1="256.3" y1="327.65" x2="743.7" y2="327.65" gradientTransform="matrix(1 0 0 1 0 108)">
				<stop  offset="0" style="stop-color:#FFFFFF;stop-opacity:0"/>
				<stop  offset="0.5" style="stop-color:#FFFFFF;stop-opacity:0.1"/>
				<stop  offset="1" style="stop-color:#FFFFFF;stop-opacity:0"/>
			</linearGradient>
			<path class="st2" d="M500,452.7c84.4,0,166.1-11.9,243.7-34.1C666,435.1,584.3,443.9,500,443.9s-166.1-8.8-243.7-25.3
				C333.9,440.9,415.6,452.7,500,452.7z"/>
			
				<linearGradient id="SVGID_4_" gradientUnits="userSpaceOnUse" x1="287.8" y1="336.35" x2="712.2" y2="336.35" gradientTransform="matrix(1 0 0 1 0 108)">
				<stop  offset="0" style="stop-color:#FFFFFF;stop-opacity:0"/>
				<stop  offset="0.5" style="stop-color:#FFFFFF;stop-opacity:0.1"/>
				<stop  offset="1" style="stop-color:#FFFFFF;stop-opacity:0"/>
			</linearGradient>
			<path class="st3" d="M500,453.7c73.5,0,144.6-6.5,212.2-18.7c-67.6,9-138.8,15.2-212.2,15.2S355.4,444,287.8,435
				C355.4,447.2,426.5,453.7,500,453.7z"/>
			
				<linearGradient id="SVGID_5_" gradientUnits="userSpaceOnUse" x1="301.7" y1="331.45" x2="698.3" y2="331.45" gradientTransform="matrix(1 0 0 1 0 108)">
				<stop  offset="0" style="stop-color:#FFFFFF;stop-opacity:0"/>
				<stop  offset="0.5" style="stop-color:#FFFFFF;stop-opacity:0.2"/>
				<stop  offset="1" style="stop-color:#FFFFFF;stop-opacity:0"/>
			</linearGradient>
			<path class="st4" d="M500,448.8c68.6,0,135.2-6.5,198.3-18.7C635.2,439.2,568.6,444,500,444s-135.2-4.8-198.3-13.8
				C364.8,442.4,431.4,448.8,500,448.8z"/>
			
				<linearGradient id="SVGID_6_" gradientUnits="userSpaceOnUse" x1="247.4" y1="330.2" x2="752.6" y2="330.2" gradientTransform="matrix(1 0 0 1 0 108)">
				<stop  offset="0" style="stop-color:#FFFFFF;stop-opacity:0"/>
				<stop  offset="0.5" style="stop-color:#FFFFFF;stop-opacity:0.1"/>
				<stop  offset="1" style="stop-color:#FFFFFF;stop-opacity:0"/>
			</linearGradient>
			<path class="st5" d="M500,451.4c87.4,0,172.2-9.2,252.6-26.4c-80.4,12.8-165.2,19.6-252.6,19.6s-172.2-6.8-252.6-19.6
				C327.8,442.2,412.6,451.4,500,451.4z"/>
			<g>
				
					<linearGradient id="SVGID_7_" gradientUnits="userSpaceOnUse" x1="267.7" y1="326.7" x2="732.3" y2="326.7" gradientTransform="matrix(1 0 0 1 0 108)">
					<stop  offset="0" style="stop-color:#FFFFFF;stop-opacity:5.000000e-02"/>
					<stop  offset="0.5" style="stop-color:#FFFFFF;stop-opacity:0.3"/>
					<stop  offset="1" style="stop-color:#FFFFFF;stop-opacity:5.000000e-02"/>
				</linearGradient>
				<path class="st6" d="M500,452.5c80.4,0,158.3-12.4,232.3-35.6c-74,17.2-151.9,29-232.3,29s-158.3-11.8-232.3-29
					C341.7,440.1,419.6,452.5,500,452.5z"/>
				
					<linearGradient id="SVGID_8_" gradientUnits="userSpaceOnUse" x1="267.7" y1="326" x2="732.3" y2="326" gradientTransform="matrix(1 0 0 1 0 108)">
					<stop  offset="0" style="stop-color:#FFFFFF;stop-opacity:5.000000e-02"/>
					<stop  offset="0.5" style="stop-color:#FFFFFF;stop-opacity:0.3"/>
					<stop  offset="1" style="stop-color:#FFFFFF;stop-opacity:5.000000e-02"/>
				</linearGradient>
				<path class="st7" d="M500,451c80.4,0,159.2-13.6,232.3-34c-74,17.1-151.9,30.5-232.3,30.5S341.7,434.1,267.7,417
					C342.2,438.5,419.6,451,500,451z"/>
			</g>
		</g>
		<rect x="82.7" y="364.5" class="st8" width="834.6" height="171"/>
	</g>
</g>
</svg>
