<svg version="1.2" xmlns="http://www.w3.org/2000/svg" xmlns:xlink="http://www.w3.org/1999/xlink" overflow="visible" preserveAspectRatio="none" viewBox="0 0 33.670000076293945 38" id="Layer_1_1572619982833" width="55" height="64"><g transform="translate(1, 1)"><path transform="translate(-8.26 -6.09)" d="M24.09,6.09c-8.73,0-15.83,7.85-15.83,17.5,0,10,7.25,18.5,15.83,18.5s15.83-8.47,15.83-18.5C39.92,13.94,32.82,6.09,24.09,6.09Zm0,34c-7.37,0-13.83-7.71-13.83-16.5,0-8.55,6.2-15.5,13.83-15.5s13.83,7,13.83,15.5C37.92,32.38,31.46,40.09,24.09,40.09Z" vector-effect="non-scaling-stroke" style="fill: rgb(0, 117, 176);"/><path transform="translate(-8.26 -6.09)" d="M19.84,21.46c1.19,0,1.73-1.41,1.73-2.73,0-1.55-.71-2.64-1.73-2.64s-1.72,1.09-1.72,2.64C18.12,20.05,18.66,21.46,19.84,21.46Z" vector-effect="non-scaling-stroke" style="fill: rgb(0, 117, 176);"/><path transform="translate(-8.26 -6.09)" d="M28.34,21.46c1.18,0,1.72-1.41,1.72-2.73,0-1.55-.71-2.64-1.72-2.64s-1.73,1.09-1.73,2.64C26.61,20.05,27.15,21.46,28.34,21.46Z" vector-effect="non-scaling-stroke" style="fill: rgb(0, 117, 176);"/><path transform="translate(-8.26 -6.09)" d="M29.8,27.19a1,1,0,0,0-.11,1.41l.25.29a8.73,8.73,0,0,1-11.72,0l.27-.32A1,1,0,0,0,17,27.23l-1.81,2.13a1,1,0,0,0,1.52,1.3l.24-.29a10.7,10.7,0,0,0,14.32,0l.26.31a1,1,0,0,0,1.41.12A1,1,0,0,0,33,29.43L31.21,27.3A1,1,0,0,0,29.8,27.19Z" vector-effect="non-scaling-stroke" style="fill: rgb(0, 117, 176);"/></g></svg>