<svg id="Layer_1" data-name="Layer 1" xmlns="http://www.w3.org/2000/svg" viewBox="0 0 37.94 37.94"><title>Twitter</title><g id="layer1"><path id="path3611" d="M16.44,26.69A11,11,0,0,0,27.54,15.6c0-.17,0-.34,0-.51a7.89,7.89,0,0,0,1.94-2,7.91,7.91,0,0,1-2.23.61A3.92,3.92,0,0,0,29,11.53a7.84,7.84,0,0,1-2.48,1,3.9,3.9,0,0,0-6.74,2.67,3.8,3.8,0,0,0,.1.89,11.1,11.1,0,0,1-8-4.08,3.86,3.86,0,0,0-.53,2A3.91,3.91,0,0,0,13,17.17a3.94,3.94,0,0,1-1.77-.49v.05a3.89,3.89,0,0,0,3.13,3.82,3.88,3.88,0,0,1-1,.14,4.3,4.3,0,0,1-.73-.07,3.89,3.89,0,0,0,3.64,2.71A7.86,7.86,0,0,1,11.4,25a7,7,0,0,1-.93-.06,11,11,0,0,0,6,1.75" fill="#009fda"/></g><path d="M19,2A17,17,0,1,1,2,19,17,17,0,0,1,19,2m0-2a19,19,0,1,0,19,19A19,19,0,0,0,19,0Z" fill="#009fda"/></svg>