<?xml version="1.0" standalone="no"?>
<svg version="1.1" preserveAspectRatio="xMidYMid meet" viewBox="0 0 100 100" class="ng-element" data-id="033761fd69434fb5b69f42b372572d41" style="overflow: visible; width: 24px; height: 24px; filter: none;" xmlns="http://www.w3.org/2000/svg"><path d="M86.4,41.7L19.5,0.5c-1.7-1-3.8-0.5-4.8,1.1c-1,1.7-0.5,3.8,1.1,4.8l66.9,41.2c1.2,0.8,1.9,2,1.9,3.5c0,1.4-0.7,2.7-1.9,3.5
	L21.6,92.3c-1.8,1.1-3.5,0.4-4.1,0.1c-0.6-0.3-2.1-1.4-2.1-3.6V27.5c0-1.9-1.6-3.5-3.5-3.5s-3.5,1.6-3.5,3.5v61.4
	c0,4.1,2.1,7.7,5.7,9.7c1.7,1,3.6,1.4,5.4,1.4c2,0,4-0.6,5.8-1.7l61.1-37.7c3.3-2,5.3-5.6,5.3-9.4C91.7,47.3,89.7,43.8,86.4,41.7z" vector-effect="non-scaling-stroke" style="fill: rgb(255, 255, 255);"/></svg>