<?xml version="1.0" standalone="no"?>
<svg version="1.1" preserveAspectRatio="xMidYMid meet" viewBox="0 0 100 100" class="ng-element interactive" data-id="a995c028a54c4418b9d3bff29923bb28" style="overflow: visible; width: 24px; height: 24px; pointer-events: all; filter: none;" xmlns="http://www.w3.org/2000/svg"><path d="M96.5,31.8c1.9,0,3.5-1.6,3.5-3.5V12c0-6.6-5.3-12-11.8-12H72.5C70.6,0,69,1.6,69,3.6s1.6,3.5,3.5,3.5h15.4L50,45L12.1,7
	h16.2c1.9,0,3.5-1.6,3.5-3.5S30.2,0,28.2,0H12C5.4,0,0,5.3,0,11.8v15.7C0,29.4,1.6,31,3.6,31s3.5-1.6,3.5-3.5V12L45,50l-38,38V71.8
	c0-1.9-1.6-3.5-3.5-3.5S0,69.8,0,71.8V88c0,6.6,5.3,12,11.8,12h15.7c1.9,0,3.5-1.6,3.5-3.5s-1.6-3.5-3.5-3.5H12l38-38l38,38
	c0,0,0,0,0,0H71.8c-1.9,0-3.5,1.6-3.5,3.5s1.6,3.5,3.5,3.5H88c6.6,0,12-5.3,12-11.8V72.5c0-1.9-1.6-3.5-3.5-3.5s-3.5,1.6-3.5,3.5
	v15.4L55,50l38-38c0,0,0,0,0,0v16.2C93,30.2,94.5,31.8,96.5,31.8z" vector-effect="non-scaling-stroke" style="fill: rgb(255, 255, 255);"/></svg>