<?xml version="1.0" standalone="no"?>
<svg version="1.1" preserveAspectRatio="xMidYMid meet" viewBox="0 0 100 100" class="ng-element" data-id="cbcb3aa77f624eb9b25247253d98b18c" style="overflow: visible; width: 24px; height: 24px; pointer-events: all; filter: none;" xmlns="http://www.w3.org/2000/svg"><path d="M33.2,0H18.9c-2,0-3.6,1.6-3.6,3.6s1.6,3.6,3.6,3.6h14.3c2.7,0,4.8,2.2,4.8,4.8v76c0,2.7-2.2,4.9-4.9,4.9H19
	c-2.7,0-4.8-2.2-4.8-4.8V16.9c0-2-1.6-3.6-3.6-3.6S7,15,7,16.9V88c0,6.6,5.4,12,12,12h14.2c6.6,0,12-5.4,12-12V12
	C45.1,5.4,39.8,0,33.2,0z M79.9,0H65.7c-6.6,0-12,5.4-12,12V88c0,6.6,5.4,12,12,12h14.3c2,0,3.6-1.6,3.6-3.6s-1.6-3.6-3.6-3.6H65.7
	c-2.7,0-4.9-2.2-4.9-4.9V12c0-2.7,2.2-4.8,4.8-4.8h14.2c2.7,0,4.8,2.2,4.8,4.8v71.1c0,2,1.6,3.6,3.6,3.6s3.6-1.6,3.6-3.6V11.9
	C91.8,5.4,86.5,0,79.9,0z" vector-effect="non-scaling-stroke" style="fill: rgb(255, 255, 255);"/></svg>