<?xml version="1.0" standalone="no"?>
<svg version="1.1" preserveAspectRatio="xMidYMid meet" viewBox="0 0 100 100" class="ng-element" data-id="c8f46abd3e0d40b7aca291a78e3e4cb5" style="overflow: visible; width: 68px; height: 68px; filter: none;" xmlns="http://www.w3.org/2000/svg"><path d="M50,0.2c-6.6,0-14.6,2.2-18.2,4.2C30.8,5,30.5,6.1,31,7.1c0.5,0.9,1.7,1.3,2.6,0.7C36.9,6,44.2,4.1,50,4.1
	c25,0,46.2,20.9,46.2,45.7c0,25.4-20.7,46.2-46.2,46.2c-25.5,0-46.2-20.7-46.2-46.2c0-17.4,10.2-29.9,16.3-34.5
	c3.5-2.7,7.5-0.5,8.1-0.1l43.7,33c0.1,0.1,0.2,0.2,0.3,0.3c0,0,0.1,0.1,0.2,0.2c0,0,0,0.1,0.1,0.1c0,0.1,0.1,0.2,0.1,0.4
	c0,0,0.1,0.3,0.1,0.3l0,0.4c0,0,0,0.5,0,0.5l-0.1,0.3c0,0.1-0.1,0.2-0.1,0.2c0,0,0,0.1-0.1,0.1c-0.1,0.1-0.2,0.1-0.2,0.2
	c-0.1,0.1-0.1,0.2-0.2,0.2L40.5,73.8c-0.6,0.4-1.4,0.5-2,0.1c-0.6-0.3-1-1-1-1.7V34.7c0-1.1-0.9-1.9-1.9-1.9s-1.9,0.9-1.9,1.9v37.6
	c0,2.2,1.2,4.1,3.1,5.1c1.9,1,4.3,0.8,6-0.4l31.6-22.5c0.3-0.2,0.5-0.5,0.6-0.6c0.1-0.1,0.4-0.3,0.6-0.6c0.1-0.1,0.2-0.2,0.2-0.4
	c0.2-0.3,0.3-0.6,0.5-1.1c0.1-0.2,0.2-0.5,0.3-0.9c0.1-0.4,0.1-0.7,0.1-1.2c0-0.2,0-0.6-0.1-1c-0.1-0.4-0.2-0.7-0.4-1.1
	c-0.1-0.2-0.2-0.5-0.4-0.8c-0.1-0.1-0.1-0.3-0.2-0.4c-0.2-0.3-0.5-0.5-0.6-0.6c-0.1-0.1-0.3-0.4-0.6-0.6L37.9,17.6L30.4,12
	c-3.3-2.1-8.3-3.1-12.7,0.2C11.2,17.2,0,30.8,0,49.8c0,27.6,22.4,50,50,50c27.6,0,50-22.4,50-50C100,22.9,77.1,0.2,50,0.2z" vector-effect="non-scaling-stroke" style="fill: rgb(255, 255, 255);"/></svg>