<?xml version="1.0" standalone="no"?>
<svg version="1.1" preserveAspectRatio="xMidYMid meet" viewBox="0 0 100 100" class="ng-element" data-id="0910cbd50a49488b9a35e5e4c376edba" style="overflow: visible; width: 21px; height: 21px; filter: none;" xmlns="http://www.w3.org/2000/svg"><path d="M98.2,93.6L54.6,50L98.2,6.4c1.5-1.5,1.5-3.8,0-5.3c-1.5-1.5-3.8-1.5-5.3,0L49.3,44.7L7.1,2.5C5.6,1,3.3,1,1.8,2.5
	c-1.5,1.5-1.5,3.8,0,5.3L44,50L1.8,92.3c-1.5,1.5-1.5,3.8,0,5.3c0.7,0.7,1.7,1.1,2.6,1.1s1.9-0.4,2.6-1.1l42.3-42.3l43.6,43.6
	c0.7,0.7,1.7,1.1,2.6,1.1c1,0,1.9-0.4,2.6-1.1C99.7,97.4,99.7,95.1,98.2,93.6z" vector-effect="non-scaling-stroke" style="fill: rgb(255, 255, 255);"/></svg>