<svg version="1" xmlns="http://www.w3.org/2000/svg" width="744" height="744" viewBox="0 0 558.000000 558.000000"><path d="M0 129.9v129.9l7.8 2.1c12.1 3.4 40 8.8 59.2 11.5 71.7 10.3 165.3 11.3 241 2.5 102-11.8 192.7-42.9 243.3-83.6l6.7-5.4V0H0v129.9zm282.2-87c.2.6 6 6.9 13 14.1 15 15.3 29.2 30.1 59.3 61.4 12.1 12.6 23.5 24.3 25.3 25.9 1.7 1.7 3.2 3.4 3.2 3.9 0 .4-7.6.8-17 .8h-17l-.2 40.7-.3 40.8-23.2.3-23.3.2v-26.8c0-22.6-.2-27.1-1.6-29-1.5-2.1-2-2.2-21.1-2.2-16.9 0-19.9.2-21.5 1.7-1.7 1.5-1.8 3.7-1.8 29V231h-47v-82l-17.2-.2-17.3-.3 52.9-53.3C256.6 66 280.7 42 281.1 42c.4 0 .9.4 1.1.9zM125.7 310.7c-.4.3-.7 21.2-.7 46.4V403l-2.6-1c-3.4-1.3-3.4-1.3-3.4 1.3 0 2.1 1.1 2.7 10.3 5.5 44.2 13.6 97.4 22.9 150 26.3 23.2 1.5 79.7.6 101.7-1.5 44.9-4.5 92.4-13.6 128.8-24.8 9.1-2.8 10.2-3.4 10.2-5.5 0-1.2-.1-2.3-.2-2.3-.2 0-2.8.7-5.8 1.5-7.4 2-7.4 2-4.6-2.3 3.4-5.3 5.2-11.2 3.6-12.2-1.8-1.1-15-3.1-16.1-2.5-.5.4-.9 1.3-.9 2.1 0 2.2-7.1 9.5-10.7 11.1-4.7 1.9-15 1.6-20-.6-15-6.9-16.5-34.7-2.4-44.6 4-2.8 4.9-3 12.9-3 10.4 0 14.7 2.1 18.9 9.2l2.6 4.5 6.1-.7c9.7-1 10.8-1.4 10-3.9-4-13.7-14.7-22.4-30.5-24.9-19.5-3-38.5 6.8-45.1 23.1-3.3 8.3-3.3 26.1 0 34.4 2.9 7.2 10 15.1 16.6 18.5l5.1 2.7-7 1.2c-48.6 8.4-124.7 12.4-176 9.4-26.8-1.6-70.3-5.9-77.5-7.7-2.2-.5-1.9-.7 1.8-1.4 10-1.9 19.9-8.6 23.8-16 2-3.9 1.5-4.3-8.3-5.9-7.3-1.3-7.4-1.3-10.1 1.2-5 4.8-8.9 6-16.6 5.6-4.1-.2-8.7-1.2-10.9-2.2-4.4-2.1-8.5-7.7-9.7-13l-.8-3.6H230v-3.3c0-11.8-4.3-24.6-10.7-31.7-17.4-19.4-53.8-14.2-65.3 9.4-5.1 10.3-6 19.1-3.4 30.7 2 8.8 7.6 17.3 14.6 22.3l5.3 3.7-4-.6c-2.2-.4-8.2-1.6-13.4-2.6-5.1-1.1-9.5-1.9-9.7-1.9-.2 0-.4-21.8-.4-48.5V310h-8.3c-4.6 0-8.7.3-9 .7zm77.3 42.7c4.3 2.8 8 7.9 8 10.8 0 1.7-1.7 1.8-21 1.8-11.5 0-21-.2-21-.5 0-1.6 4.1-8.3 6.3-10.3 6.3-5.9 20.2-6.8 27.7-1.8zM410.4 311.3c-.3.8-.4 4.9-.2 9.3l.3 7.9 8.8.3 8.7.3V310h-8.5c-6.2 0-8.7.4-9.1 1.3z"/><path d="M323 324.5V335h-9v16h9v24.8c0 23.7.1 25 2.3 29.2 1.5 3.2 3.5 5.2 6.7 7 4 2.2 5.7 2.5 15 2.5h10.5l.3-7.3.3-7.2h-5.6c-5.5 0-9.3-1.2-10.7-3.4-.4-.6-.8-11.1-.8-23.3v-22.2l8.3-.3 8.2-.3v-15l-8.2-.3-8.3-.3V314h-18v10.5zM70 335.1c-7.1 1.4-16.3 6.5-21 11.5-18 19.5-12.5 54 10.3 64.7 19.2 9.1 44.7 3.9 53.3-10.9 3.2-5.5 3.1-5.7-7.1-7.4l-7.4-1.3-4.2 3.7c-2.3 1.9-5.7 3.9-7.6 4.2-5.2 1-14.4 0-18.7-2.1-4.5-2.2-9.6-9.4-9.6-13.7V381h61v-3.3c0-11.8-4.3-24.6-10.7-31.7-8.9-10-22.9-13.9-38.3-10.9zm22 18.3c4.3 2.8 8 7.9 8 10.8 0 1.7-1.7 1.8-21 1.8-11.6 0-21-.2-21-.5 0-2.1 4.6-8.8 7.4-11 4.8-3.7 8-4.5 15.8-4.1 5.3.3 7.7.9 10.8 3zM266 335.1c-12.3 2.4-23.8 11.7-28.2 22.7-1.9 4.8-2.2 7.6-2.2 17.2s.3 12.4 2.2 17.2c6.3 15.6 23.4 25 42.9 23.4 14.4-1.2 25.5-8.1 30.8-19.2 4-8.5 4.1-8.3-7.3-10.5-5.4-1-6.5-1-7.2.2-3.5 6.2-5.6 8.8-8.7 10.9-3.2 2.2-4.7 2.5-12.4 2.5-8.1 0-9-.2-13-3-6.7-4.7-9.4-10.9-9.4-21.5 0-7.2.4-9.3 2.6-13.5 3.8-7.5 9-10.7 18.3-11.3 9.9-.6 15.5 1.9 19.9 9 2 3.3 3.7 4.8 5.1 4.8 2.7 0 13.8-1.8 14.3-2.3.9-1-3.8-11.2-7.2-15.2-7.8-9.6-25-14.4-40.5-11.4zM364 374.5V414h17.9l.3-25.4c.3-23.9.4-25.6 2.4-28.2 3.4-4.6 6.7-6.5 13.7-7.7l6.7-1.1v-16.8l-4.2.7c-6.3 1.1-11.7 3.2-15.5 6.1l-3.3 2.5V335h-18v39.5zM410.7 335.7c-.4.3-.7 18.1-.7 39.5V414h18v-79h-8.3c-4.6 0-8.7.3-9 .7zM517 415c-1.4.5-5.1 1.6-8.2 2.5l-5.8 1.6v19.5c0 10.8-.3 19.4-.7 19.2-11.4-5.8-12.9-6.2-20.8-6.3-11.6 0-17.4 2.3-25.1 9.9-7.7 7.6-10.5 14.3-11.2 26.8-.9 17 5.5 29.6 18.5 36 6.3 3.1 7.4 3.3 16.8 3.3 9.3 0 10.4-.2 16.3-3.3l6.2-3.2v2.5c0 2.5.1 2.5 8.5 2.5h8.5v-56c0-30.8-.1-56-.2-55.9-.2 0-1.4.4-2.8.9zm-23.4 54.5c6.3 3.7 9.6 9.9 10.1 18.9.4 6.3.1 7.7-2.4 12.6-6.6 12.8-21.9 15.8-32.4 6.3-10.2-9.3-8.8-30.5 2.7-38 6-3.9 15.1-3.8 22 .2zM125 470.5V526h18V419.3l-7.9-2.1c-4.3-1.2-8.3-2.2-9-2.2-.8 0-1.1 14.9-1.1 55.5zM266 483v43h17V441.3l-5.2-.7c-2.9-.3-6.8-.6-8.5-.6H266v43zM215.9 452c-11.7 2.1-21.7 9.7-26.5 20.3-2.7 5.7-2.9 7.1-2.9 17.7 0 11 .1 11.8 3.3 18.2 3.9 8 10.1 13.8 18.1 17 4.6 1.9 7.5 2.3 16.7 2.3 10.7 0 11.3-.1 18-3.5 5-2.5 7.9-4.9 10.6-8.5 2.1-2.8 3.8-5.5 3.8-6.1 0-.6-3.5-1.8-7.7-2.7l-7.8-1.5-3.7 3.3c-4.2 3.9-8.4 4.9-16.7 4.3-8.9-.6-14.7-5.3-17.1-13.8l-.9-3H260v-6.8c0-16.8-8-30.4-20.6-35.2-6.3-2.3-16.9-3.3-23.5-2zm15 15c3.9 1.1 8.6 5.1 10.7 9.2 3 5.9 3.2 5.8-18.1 5.8-18.3 0-19.5-.1-19.5-1.8 0-2.5 5.3-9.8 8.2-11.3 5.4-2.9 12.7-3.6 18.7-1.9zM314.5 452.3c-14.8 4.9-23.1 15.2-25.7 31.4-1.2 7.7.1 18 3.2 24.9 2.7 6.2 9.4 13 15.9 16.1 4.9 2.4 6.8 2.7 15.7 2.8 9.4 0 10.5-.2 16.2-3.2l6.2-3.2v2.5c0 2.4.2 2.4 8.5 2.4h8.5v-73h-8.5c-8.4 0-8.5 0-8.5 2.4v2.5l-6.6-3.1c-7.8-3.6-18.3-4.7-24.9-2.5zm17.8 14.8c15.9 4.4 20.4 29.2 7.4 40.6-5.1 4.4-10.7 5.9-17.6 4.5-10.9-2.3-16.2-9.7-16.2-22.7 0-5.8.5-8.7 2.1-12.1 4.5-9.1 14-13.2 24.3-10.3zM399 452.8c-3 1-6.7 2.6-8.3 3.6l-2.7 1.8v-2.6c0-2.6 0-2.6-8.5-2.6H371v73h17v-23.3c0-21.1.2-23.5 1.9-26.3 2.8-4.6 8-8.2 13.9-9.5 4.3-1 5.7-1 9.6.5 7.9 3 8.1 3.5 8.4 32.9l.3 25.7H439v-26.8c0-31.8-.6-34.9-7.4-40.9-5.4-4.7-9.7-6.3-19.6-6.9-5.6-.3-8.9 0-13 1.4zM177.2 453.5c-1.7.8-4.8 2.6-6.7 4.1l-3.5 2.6V453h-17v73h16.9l.3-22.8.3-22.9 2.9-3.7c3.1-4.1 9.4-7.5 13.9-7.6h2.7v-17h-3.2c-1.8.1-4.8.7-6.6 1.5z"/></svg>